<svg width="512" height="512" viewBox="0 0 512 512" fill="none" xmlns="http://www.w3.org/2000/svg">
<rect width="512" height="512" fill="black"/>
<path d="M92.9091 282H75.1648V229.636H93.267C98.4659 229.636 102.932 230.685 106.665 232.781C110.415 234.861 113.295 237.852 115.307 241.756C117.318 245.659 118.324 250.33 118.324 255.767C118.324 261.222 117.31 265.909 115.281 269.83C113.27 273.75 110.364 276.759 106.562 278.855C102.778 280.952 98.2273 282 92.9091 282ZM84.6506 273.793H92.4489C96.0966 273.793 99.1392 273.128 101.577 271.798C104.014 270.452 105.847 268.449 107.074 265.79C108.301 263.114 108.915 259.773 108.915 255.767C108.915 251.761 108.301 248.437 107.074 245.795C105.847 243.136 104.031 241.151 101.628 239.838C99.2415 238.509 96.2756 237.844 92.7301 237.844H84.6506V273.793ZM131.249 282H121.124L139.558 229.636H151.268L169.729 282H159.604L145.618 240.375H145.209L131.249 282ZM131.581 261.469H159.195V269.088H131.581V261.469ZM219.657 229.636V282H211.219L186.546 246.332H186.112V282H176.626V229.636H185.114L209.762 265.33H210.222V229.636H219.657ZM258.45 244.031C258.212 241.798 257.206 240.06 255.433 238.815C253.678 237.571 251.393 236.949 248.581 236.949C246.604 236.949 244.908 237.247 243.493 237.844C242.078 238.44 240.996 239.25 240.246 240.273C239.496 241.295 239.112 242.463 239.095 243.776C239.095 244.866 239.342 245.812 239.837 246.614C240.348 247.415 241.038 248.097 241.908 248.659C242.777 249.205 243.74 249.665 244.797 250.04C245.854 250.415 246.919 250.73 247.993 250.986L252.902 252.213C254.879 252.673 256.78 253.295 258.604 254.08C260.445 254.864 262.089 255.852 263.538 257.045C265.004 258.239 266.163 259.679 267.016 261.366C267.868 263.054 268.294 265.031 268.294 267.298C268.294 270.366 267.51 273.068 265.942 275.403C264.374 277.722 262.107 279.537 259.141 280.849C256.192 282.145 252.621 282.793 248.428 282.793C244.354 282.793 240.817 282.162 237.817 280.901C234.834 279.639 232.499 277.798 230.811 275.378C229.141 272.957 228.237 270.009 228.101 266.531H237.433C237.57 268.355 238.132 269.872 239.121 271.082C240.109 272.293 241.396 273.196 242.982 273.793C244.584 274.389 246.374 274.688 248.351 274.688C250.413 274.688 252.22 274.381 253.771 273.767C255.339 273.136 256.567 272.267 257.453 271.159C258.339 270.034 258.791 268.722 258.808 267.222C258.791 265.858 258.391 264.733 257.607 263.847C256.822 262.943 255.723 262.193 254.308 261.597C252.911 260.983 251.274 260.437 249.399 259.96L243.442 258.426C239.129 257.318 235.72 255.639 233.214 253.389C230.726 251.122 229.482 248.114 229.482 244.364C229.482 241.278 230.317 238.577 231.987 236.259C233.675 233.94 235.967 232.142 238.865 230.864C241.763 229.568 245.044 228.92 248.709 228.92C252.425 228.92 255.68 229.568 258.476 230.864C261.288 232.142 263.496 233.923 265.098 236.207C266.7 238.474 267.527 241.082 267.578 244.031H258.45ZM286.237 229.636V282H276.751V229.636H286.237ZM339.54 229.636V282H331.102L306.429 246.332H305.994V282H296.509V229.636H304.997L329.645 265.33H330.105V229.636H339.54ZM378.333 244.031C378.094 241.798 377.089 240.06 375.316 238.815C373.56 237.571 371.276 236.949 368.464 236.949C366.487 236.949 364.79 237.247 363.376 237.844C361.961 238.44 360.879 239.25 360.129 240.273C359.379 241.295 358.995 242.463 358.978 243.776C358.978 244.866 359.225 245.812 359.719 246.614C360.231 247.415 360.921 248.097 361.79 248.659C362.66 249.205 363.623 249.665 364.68 250.04C365.737 250.415 366.802 250.73 367.876 250.986L372.785 252.213C374.762 252.673 376.663 253.295 378.487 254.08C380.327 254.864 381.972 255.852 383.421 257.045C384.887 258.239 386.046 259.679 386.898 261.366C387.751 263.054 388.177 265.031 388.177 267.298C388.177 270.366 387.393 273.068 385.825 275.403C384.256 277.722 381.989 279.537 379.023 280.849C376.075 282.145 372.504 282.793 368.31 282.793C364.237 282.793 360.7 282.162 357.7 280.901C354.717 279.639 352.381 277.798 350.694 275.378C349.023 272.957 348.12 270.009 347.984 266.531H357.316C357.452 268.355 358.015 269.872 359.004 271.082C359.992 272.293 361.279 273.196 362.864 273.793C364.467 274.389 366.256 274.688 368.234 274.688C370.296 274.688 372.103 274.381 373.654 273.767C375.222 273.136 376.45 272.267 377.336 271.159C378.222 270.034 378.674 268.722 378.691 267.222C378.674 265.858 378.273 264.733 377.489 263.847C376.705 262.943 375.606 262.193 374.191 261.597C372.793 260.983 371.157 260.437 369.282 259.96L363.325 258.426C359.012 257.318 355.603 255.639 353.097 253.389C350.609 251.122 349.364 248.114 349.364 244.364C349.364 241.278 350.2 238.577 351.87 236.259C353.558 233.94 355.85 232.142 358.748 230.864C361.646 229.568 364.927 228.92 368.592 228.92C372.308 228.92 375.563 229.568 378.359 230.864C381.171 232.142 383.379 233.923 384.981 236.207C386.583 238.474 387.41 241.082 387.461 244.031H378.333ZM402.514 282H392.389L410.824 229.636H422.534L440.994 282H430.869L416.884 240.375H416.474L402.514 282ZM402.847 261.469H430.46V269.088H402.847V261.469Z" fill="white"/>
</svg>
